<?xml version="1.0" encoding="utf-8"?>
<!-- Generator: Adobe Illustrator 16.0.0, SVG Export Plug-In . SVG Version: 6.00 Build 0)  -->
<!DOCTYPE svg PUBLIC "-//W3C//DTD SVG 1.1//EN" "http://www.w3.org/Graphics/SVG/1.1/DTD/svg11.dtd">
<svg version="1.1" id="图层_1" xmlns="http://www.w3.org/2000/svg" xmlns:xlink="http://www.w3.org/1999/xlink" x="0px"
     y="0px"
     width="30px" height="30px" viewBox="0 0 30 30" enable-background="new 0 0 30 30" xml:space="preserve">
<rect x="-0.628" y="-0.469" display="none" width="31.106" height="31.018"/>
    <path display="none" fill="#FFFFFF" d="M4.614,20.521H2.538c-1.148,0-2.078,0.93-2.078,2.076c0,1.148,0.93,2.078,2.078,2.078h2.076
	c1.147,0,2.077-0.93,2.077-2.078C6.691,21.451,5.761,20.521,4.614,20.521z M4.614,12.212H2.538c-1.148,0-2.078,0.93-2.078,2.077
	s0.93,2.078,2.078,2.078h2.076c1.147,0,2.077-0.931,2.077-2.078S5.761,12.212,4.614,12.212z M4.614,3.902H2.538
	c-1.148,0-2.078,0.931-2.078,2.077c0,1.148,0.93,2.078,2.078,2.078h2.076c1.147,0,2.077-0.93,2.077-2.078
	C6.691,4.833,5.761,3.902,4.614,3.902z M12.923,8.058h14.542c1.146,0,2.076-0.93,2.076-2.078c0-1.146-0.93-2.077-2.076-2.077H12.923
	c-1.147,0-2.077,0.931-2.077,2.077C10.846,7.128,11.776,8.058,12.923,8.058z M27.465,12.212H12.923c-1.147,0-2.077,0.93-2.077,2.077
	s0.93,2.078,2.077,2.078h14.542c1.146,0,2.076-0.931,2.076-2.078S28.611,12.212,27.465,12.212z M27.465,20.521H12.923
	c-1.147,0-2.077,0.93-2.077,2.076c0,1.148,0.93,2.078,2.077,2.078h14.542c1.146,0,2.076-0.93,2.076-2.078
	C29.541,21.451,28.611,20.521,27.465,20.521z"/>
    <g display="none">
	<path display="inline" fill-rule="evenodd" clip-rule="evenodd" fill="#FFFFFF" d="M21.372,1.687H7.757l-5.73,5.122v20.086h13.622
		v-1.806H4.056V8.776H9.93v-5.29h9.414v5.584h2.028V1.687z M21.372,1.687"/>
        <path display="inline" fill-rule="evenodd" clip-rule="evenodd" fill="#FFFFFF" d="M18.508,17.359v-5.568h4.319v5.568h5.94v4.034
		h-5.94v5.569h-4.319v-5.569h-5.931v-4.034H18.508z M18.508,17.359"/>
</g>
    <g display="none">
	<path display="inline" fill="#FFFFFF" d="M9.862,6.104h10.542c0.311,0,0.57-0.256,0.57-0.571V0.89H9.292v4.643
		C9.292,5.848,9.547,6.104,9.862,6.104L9.862,6.104z M9.862,6.104"/>
        <path display="inline" fill="#FFFFFF" d="M28.801,7.988l-5.946-5.973v3.517c0,1.353-1.101,2.454-2.451,2.454H9.862
		c-1.35,0-2.451-1.101-2.451-2.454V0.89H3.612c-1.431,0-2.589,1.16-2.589,2.589v23.043c0,1.429,1.159,2.589,2.589,2.589h23.041
		c1.431,0,2.59-1.16,2.59-2.589V9.056C29.242,8.655,29.082,8.271,28.801,7.988L28.801,7.988z M24.853,23.173
		c0,0.834-0.677,1.512-1.513,1.512H6.923c-0.836,0-1.513-0.678-1.513-1.512v-7.878c0-0.834,0.676-1.512,1.513-1.512H23.34
		c0.836,0,1.513,0.678,1.513,1.512V23.173z M24.853,23.173"/>
        <path display="inline" fill="#FFFFFF" d="M21.618,16.208H8.645c-0.521,0-0.941,0.421-0.941,0.941s0.419,0.94,0.941,0.94h12.973
		c0.521,0,0.94-0.42,0.94-0.94S22.14,16.208,21.618,16.208L21.618,16.208z M21.618,16.208"/>
        <path display="inline" fill="#FFFFFF" d="M19.736,19.972h-9.21c-0.519,0-0.941,0.42-0.941,0.94c0,0.52,0.422,0.94,0.941,0.94h9.21
		c0.521,0,0.943-0.421,0.943-0.94C20.68,20.392,20.258,19.972,19.736,19.972L19.736,19.972z M19.736,19.972"/>
</g>
    <g>
	<path fill-rule="evenodd" clip-rule="evenodd" fill="#FFFFFF" d="M20.681,2.196H6.85L1.03,7.397v20.406h15.892v-1.837H3.091V9.396
		h5.967V4.023h9.562v5.595h2.061V2.196z M20.681,2.196"/>
        <path fill-rule="evenodd" clip-rule="evenodd" fill="#FFFFFF" d="M9.97,21.513h9.54v5.568l9.459-7.248l-9.459-7.248v5.57H9.97
		V21.513z M9.97,21.513"/>
</g>
    <g display="none">
	<path display="inline" fill-rule="evenodd" clip-rule="evenodd" fill="#FFFFFF" d="M20.709,2.162H6.858L1.03,7.371v20.433h15.914
		v-1.837H3.094V9.372h5.975v-5.38h9.576v5.603h2.063V2.162z M20.709,2.162"/>
        <path display="inline" fill-rule="evenodd" clip-rule="evenodd" fill="#FFFFFF" d="M29.009,18.144h-9.553v-5.578l-9.474,7.259
		l9.474,7.257v-5.575h9.553V18.144z M29.009,21.506"/>
</g>
    <path display="none" fill="#FFFFFF" d="M7.773,24.756H4.989V13.06h2.784V24.756z M12.229,8.512H9.444v16.336h2.784V8.512z
	 M20.943,8.512h-2.785v16.336h2.785V8.512z M16.52,12.41h-2.784v12.438h2.784V12.41z M2.873,26.482V2.474H1.388v25.495h27.226
	v-1.486H2.873L2.873,26.482z"/>
    <g display="none">
	<path display="inline" fill="#FFFFFF" d="M26.181,6.924L23.075,3.82c-0.192-0.192-0.489-0.229-0.722-0.088l-1.62,0.98
		c-0.786-0.44-1.629-0.792-2.515-1.043l-0.451-1.836c-0.064-0.263-0.301-0.449-0.572-0.449h-4.391c-0.271,0-0.508,0.186-0.573,0.449
		L11.78,3.669c-0.886,0.251-1.728,0.603-2.515,1.043l-1.619-0.98C7.414,3.592,7.116,3.628,6.924,3.82L3.819,6.924
		C3.627,7.117,3.591,7.415,3.732,7.646l0.979,1.62c-0.439,0.787-0.792,1.628-1.042,2.514l-1.837,0.452
		c-0.264,0.064-0.449,0.301-0.449,0.572v4.392c0,0.271,0.185,0.508,0.449,0.572l1.837,0.452c0.251,0.886,0.603,1.728,1.042,2.515
		l-0.979,1.619c-0.141,0.231-0.104,0.529,0.087,0.722l3.104,3.104c0.192,0.192,0.49,0.229,0.722,0.088l1.619-0.98
		c0.787,0.439,1.629,0.792,2.515,1.044l0.452,1.836c0.065,0.264,0.301,0.449,0.573,0.449h4.391c0.271,0,0.508-0.186,0.572-0.449
		l0.451-1.836c0.886-0.252,1.729-0.604,2.515-1.044l1.62,0.98c0.232,0.141,0.529,0.104,0.722-0.088l3.105-3.104
		c0.191-0.192,0.228-0.49,0.087-0.722l-0.98-1.619c0.44-0.787,0.793-1.629,1.044-2.515l1.836-0.452
		c0.264-0.064,0.449-0.301,0.449-0.572v-4.392c0-0.271-0.186-0.507-0.449-0.572l-1.836-0.452c-0.251-0.886-0.604-1.728-1.044-2.514
		l0.98-1.62C26.408,7.415,26.372,7.117,26.181,6.924z M15,21.145c-3.393,0-6.145-2.751-6.145-6.145S11.607,8.856,15,8.856
		c3.393,0,6.146,2.75,6.146,6.144S18.393,21.145,15,21.145z"/>
</g>
    <g display="none">
	<path display="inline" fill="#FFFFFF" d="M23.246,20.751v-2.543c0-2.652-2.156-4.812-4.813-4.812c-1.135,0-2.061-0.927-2.061-2.061
		V9.248c1.598-0.57,2.752-2.081,2.752-3.872c0-2.269-1.852-4.121-4.128-4.121c-2.269,0-4.121,1.852-4.121,4.121
		c0,1.792,1.154,3.302,2.751,3.872v2.087c0,1.134-0.926,2.061-2.067,2.061c-2.651,0-4.806,2.16-4.806,4.812v2.543
		c-1.597,0.572-2.751,2.082-2.751,3.873c0,2.268,1.853,4.121,4.122,4.121c2.274,0,4.127-1.854,4.127-4.121
		c0-1.791-1.155-3.301-2.752-3.873v-2.543c0-1.141,0.926-2.06,2.06-2.06c1.349,0,2.564-0.564,3.437-1.458
		c0.88,0.894,2.094,1.458,3.437,1.458c1.141,0,2.066,0.919,2.066,2.06v2.543c-1.598,0.572-2.752,2.082-2.752,3.873
		c0,2.268,1.854,4.121,4.121,4.121c2.275,0,4.127-1.854,4.127-4.121C25.996,22.833,24.844,21.323,23.246,20.751L23.246,20.751z
		 M8.125,25.993c-0.759,0-1.37-0.617-1.37-1.369c0-0.76,0.611-1.375,1.37-1.375c0.758,0,1.375,0.615,1.375,1.375
		C9.5,25.376,8.883,25.993,8.125,25.993L8.125,25.993z M14.997,4.006c0.759,0,1.376,0.617,1.376,1.37
		c0,0.758-0.617,1.375-1.376,1.375s-1.369-0.618-1.369-1.375C13.628,4.624,14.238,4.006,14.997,4.006L14.997,4.006z M21.869,25.993
		c-0.758,0-1.369-0.617-1.369-1.369c0-0.76,0.611-1.375,1.369-1.375s1.377,0.615,1.377,1.375
		C23.246,25.376,22.627,25.993,21.869,25.993L21.869,25.993z M21.869,25.993"/>
</g>
</svg>
